<svg t="1709799498849" class="icon" viewBox="0 0 1024 1024" version="1.1" xmlns="http://www.w3.org/2000/svg" p-id="5574" width="200" height="200">
  <path d="M810.666667 213.333333a85.333333 85.333333 0 0 1 85.333333 85.333334v426.666666a85.333333 85.333333 0 0 1-85.333333 85.333334H213.333333a85.333333 85.333333 0 0 1-85.333333-85.333334V298.666667a85.333333 85.333333 0 0 1 85.333333-85.333334h597.333334z m0 42.666667H213.333333a42.666667 42.666667 0 0 0-42.666666 42.666667v426.666666a42.666667 42.666667 0 0 0 42.666666 42.666667h597.333334a42.666667 42.666667 0 0 0 42.666666-42.666667V298.666667a42.666667 42.666667 0 0 0-42.666666-42.666667z m-298.666667 85.333333a170.666667 170.666667 0 1 1 0 341.333334 170.666667 170.666667 0 0 1 0-341.333334z m0 42.666667a128 128 0 1 0 0 256 128 128 0 0 0 0-256z" fill="#007AFF" p-id="5575"></path>
</svg>