<svg t="1709799347636" class="icon" viewBox="0 0 1024 1024" version="1.1" xmlns="http://www.w3.org/2000/svg" p-id="4449" width="200" height="200">
  <path d="M947.2 422.4L572.8 115.2c-32-25.6-86.4-25.6-118.4 0L76.8 422.4c-12.8 12.8-16 28.8-16 44.8 0 32 28.8 57.6 64 57.6h64v342.4c0 48 41.6 89.6 89.6 89.6h476.8c48 0 89.6-41.6 89.6-89.6V524.8h64c35.2 0 64-25.6 64-57.6 0-16-3.2-32-16-44.8z m-272 444.8H345.6c-16 0-28.8-12.8-28.8-28.8V486.4c0-16 12.8-28.8 28.8-28.8h329.6c16 0 28.8 12.8 28.8 28.8v352c0 16-12.8 28.8-28.8 28.8z" fill="#007AFF" p-id="4450"></path>
</svg>