<svg t="1709799576633" class="icon" viewBox="0 0 1024 1024" version="1.1" xmlns="http://www.w3.org/2000/svg" p-id="6700" width="200" height="200">
  <path d="M512 85.333333c235.648 0 426.666667 191.018667 426.666667 426.666667s-191.018667 426.666667-426.666667 426.666667S85.333333 747.648 85.333333 512 276.352 85.333333 512 85.333333z m0 64c-200.298667 0-362.666667 162.368-362.666667 362.666667 0 200.298667 162.368 362.666667 362.666667 362.666667 200.298667 0 362.666667-162.368 362.666667-362.666667 0-200.298667-162.368-362.666667-362.666667-362.666667z m0 64a149.333333 149.333333 0 1 1 0 298.666667 149.333333 149.333333 0 0 1 0-298.666667z m0 64a85.333333 85.333333 0 1 0 0 170.666667 85.333333 85.333333 0 0 0 0-170.666667zM233.408 725.333333c26.965333-119.509333 133.973333-213.333333 278.592-213.333333s251.626667 93.824 278.592 213.333333a362.666667 362.666667 0 0 1-557.184 0z" fill="#007AFF" p-id="6701"></path>
</svg>