<svg t="1709800525849" class="icon" viewBox="0 0 1024 1024" version="1.1" xmlns="http://www.w3.org/2000/svg" p-id="12925" width="200" height="200">
  <path d="M512 128l384 298.666667v469.333333H128V426.666667L512 128z m0 85.333333L213.333333 459.093333V810.666667h597.333334V459.093333L512 213.333333z" fill="#CCCCCC" p-id="12926"></path>
  <path d="M512 298.666667c94.293333 0 170.666667 76.373333 170.666667 170.666666v85.333334h-85.333334v-85.333334c0-47.146667-38.186667-85.333333-85.333333-85.333333s-85.333333 38.186667-85.333333 85.333333v85.333334h-85.333334v-85.333334c0-94.293333 76.373333-170.666667 170.666667-170.666666z" fill="#CCCCCC" p-id="12927"></path>
  <path d="M512 554.666667c47.146667 0 85.333333 38.186667 85.333333 85.333333s-38.186667 85.333333-85.333333 85.333333-85.333333-38.186667-85.333333-85.333333 38.186667-85.333333 85.333333-85.333333z" fill="#CCCCCC" p-id="12928"></path>
</svg>