<svg t="1709800245849" class="icon" viewBox="0 0 1024 1024" version="1.1" xmlns="http://www.w3.org/2000/svg" p-id="8925" width="200" height="200">
  <path d="M864 416V288c0-52.928-43.072-96-96-96H256c-52.928 0-96 43.072-96 96v128c-35.328 0-64 28.672-64 64v256c0 35.328 28.672 64 64 64v64h64v-64h576v64h64v-64c35.328 0 64-28.672 64-64V480c0-35.328-28.672-64-64-64zM224 288c0-17.632 14.368-32 32-32h512c17.632 0 32 14.368 32 32v128H224V288z m640 384H160V480h704v192z" fill="#333333" p-id="8926"></path>
  <path d="M288 320h128v64H288zM608 320h128v64H608z" fill="#333333" p-id="8927"></path>
</svg>