<svg t="1709800315849" class="icon" viewBox="0 0 1024 1024" version="1.1" xmlns="http://www.w3.org/2000/svg" p-id="9925" width="200" height="200">
  <path d="M896 256H128c-35.2 0-64 28.8-64 64v384c0 35.2 28.8 64 64 64h768c35.2 0 64-28.8 64-64V320c0-35.2-28.8-64-64-64z m0 448H128V320h768v384z" fill="#333333" p-id="9926"></path>
  <path d="M256 448h512v64H256zM320 576h384v64H320z" fill="#333333" p-id="9927"></path>
  <path d="M192 384m-32 0a32 32 0 1 0 64 0 32 32 0 1 0-64 0Z" fill="#333333" p-id="9928"></path>
  <path d="M832 384m-32 0a32 32 0 1 0 64 0 32 32 0 1 0-64 0Z" fill="#333333" p-id="9929"></path>
</svg>