<svg t="1709800175849" class="icon" viewBox="0 0 1024 1024" version="1.1" xmlns="http://www.w3.org/2000/svg" p-id="7825" width="200" height="200">
  <path d="M853.333333 298.666667v597.333333H170.666667V298.666667h682.666666m0-85.333334H170.666667c-47.146667 0-85.333333 38.186667-85.333334 85.333334v597.333333c0 47.146667 38.186667 85.333333 85.333334 85.333333h682.666666c47.146667 0 85.333333-38.186667 85.333334-85.333333V298.666667c0-47.146667-38.186667-85.333333-85.333334-85.333334z" fill="#333333" p-id="7826"></path>
  <path d="M512 128c-47.146667 0-85.333333 38.186667-85.333333 85.333333v85.333334h170.666666V213.333333c0-47.146667-38.186667-85.333333-85.333333-85.333333z" fill="#333333" p-id="7827"></path>
  <path d="M341.333333 469.333333h341.333334v256H341.333333z" fill="#333333" p-id="7828"></path>
</svg>