<svg t="1709800455849" class="icon" viewBox="0 0 1024 1024" version="1.1" xmlns="http://www.w3.org/2000/svg" p-id="11925" width="200" height="200">
  <path d="M864 160H160c-52.928 0-96 43.072-96 96v512c0 52.928 43.072 96 96 96h704c52.928 0 96-43.072 96-96V256c0-52.928-43.072-96-96-96z m32 608c0 17.632-14.368 32-32 32H160c-17.632 0-32-14.368-32-32V256c0-17.632 14.368-32 32-32h704c17.632 0 32 14.368 32 32v512z" fill="#333333" p-id="11926"></path>
  <path d="M736 352H288c-17.664 0-32 14.336-32 32v256c0 17.664 14.336 32 32 32h448c17.664 0 32-14.336 32-32V384c0-17.664-14.336-32-32-32z m-32 256H320V416h384v192z" fill="#333333" p-id="11927"></path>
  <path d="M416 448h192v32H416zM416 512h192v32H416z" fill="#333333" p-id="11928"></path>
</svg>